<mxfile host="Electron" agent="Mozilla/5.0 (Windows NT 10.0; Win64; x64) AppleWebKit/537.36 (KHTML, like Gecko) draw.io/26.0.15 Chrome/132.0.6834.196 Electron/34.2.0 Safari/537.36" version="26.0.15">
  <diagram name="Page-1" id="YWFIZwyINcDhtMapcSa-">
    <mxGraphModel dx="1985" dy="1398" grid="0" gridSize="10" guides="1" tooltips="1" connect="1" arrows="1" fold="1" page="1" pageScale="1" pageWidth="1700" pageHeight="1100" math="0" shadow="0">
      <root>
        <mxCell id="0" />
        <mxCell id="1" parent="0" />
        <mxCell id="3sV6u4wmjcROQWb_skof-1" value="" style="whiteSpace=wrap;html=1;aspect=fixed;fillColor=#dae8fc;strokeColor=#6c8ebf;" vertex="1" parent="1">
          <mxGeometry x="671" y="61" width="406" height="406" as="geometry" />
        </mxCell>
        <mxCell id="3sV6u4wmjcROQWb_skof-2" value="" style="endArrow=classic;html=1;rounded=0;" edge="1" parent="1">
          <mxGeometry width="50" height="50" relative="1" as="geometry">
            <mxPoint x="515" y="125" as="sourcePoint" />
            <mxPoint x="670" y="125" as="targetPoint" />
          </mxGeometry>
        </mxCell>
        <mxCell id="3sV6u4wmjcROQWb_skof-3" value="" style="endArrow=classic;html=1;rounded=0;" edge="1" parent="1">
          <mxGeometry width="50" height="50" relative="1" as="geometry">
            <mxPoint x="516" y="193" as="sourcePoint" />
            <mxPoint x="671" y="193" as="targetPoint" />
          </mxGeometry>
        </mxCell>
        <mxCell id="3sV6u4wmjcROQWb_skof-4" value="" style="endArrow=classic;html=1;rounded=0;" edge="1" parent="1">
          <mxGeometry width="50" height="50" relative="1" as="geometry">
            <mxPoint x="516" y="267" as="sourcePoint" />
            <mxPoint x="671" y="267" as="targetPoint" />
          </mxGeometry>
        </mxCell>
        <mxCell id="3sV6u4wmjcROQWb_skof-5" value="" style="endArrow=classic;html=1;rounded=0;" edge="1" parent="1">
          <mxGeometry width="50" height="50" relative="1" as="geometry">
            <mxPoint x="516" y="358" as="sourcePoint" />
            <mxPoint x="671" y="358" as="targetPoint" />
          </mxGeometry>
        </mxCell>
        <mxCell id="3sV6u4wmjcROQWb_skof-6" value="" style="endArrow=classic;html=1;rounded=0;" edge="1" parent="1">
          <mxGeometry width="50" height="50" relative="1" as="geometry">
            <mxPoint x="1077" y="246" as="sourcePoint" />
            <mxPoint x="1232" y="246" as="targetPoint" />
          </mxGeometry>
        </mxCell>
        <mxCell id="3sV6u4wmjcROQWb_skof-7" value="" style="endArrow=none;html=1;rounded=0;" edge="1" parent="1">
          <mxGeometry width="50" height="50" relative="1" as="geometry">
            <mxPoint x="574" y="369" as="sourcePoint" />
            <mxPoint x="606" y="347" as="targetPoint" />
          </mxGeometry>
        </mxCell>
        <mxCell id="3sV6u4wmjcROQWb_skof-8" value="&lt;font style=&quot;font-size: 18px;&quot;&gt;5&lt;/font&gt;" style="text;html=1;align=center;verticalAlign=middle;resizable=0;points=[];autosize=1;strokeColor=none;fillColor=none;" vertex="1" parent="1">
          <mxGeometry x="576" y="323" width="28" height="34" as="geometry" />
        </mxCell>
        <mxCell id="3sV6u4wmjcROQWb_skof-9" value="&lt;font style=&quot;font-size: 22px;&quot;&gt;clk&lt;/font&gt;" style="text;html=1;align=center;verticalAlign=middle;resizable=0;points=[];autosize=1;strokeColor=none;fillColor=none;" vertex="1" parent="1">
          <mxGeometry x="468" y="104" width="45" height="38" as="geometry" />
        </mxCell>
        <mxCell id="3sV6u4wmjcROQWb_skof-10" value="&lt;font style=&quot;font-size: 22px;&quot;&gt;rst_n&lt;/font&gt;" style="text;html=1;align=center;verticalAlign=middle;resizable=0;points=[];autosize=1;strokeColor=none;fillColor=none;" vertex="1" parent="1">
          <mxGeometry x="449" y="172" width="67" height="38" as="geometry" />
        </mxCell>
        <mxCell id="3sV6u4wmjcROQWb_skof-11" value="&lt;font style=&quot;font-size: 22px;&quot;&gt;count_start&lt;/font&gt;" style="text;html=1;align=center;verticalAlign=middle;resizable=0;points=[];autosize=1;strokeColor=none;fillColor=none;" vertex="1" parent="1">
          <mxGeometry x="389" y="247" width="127" height="38" as="geometry" />
        </mxCell>
        <mxCell id="3sV6u4wmjcROQWb_skof-12" value="&lt;font style=&quot;font-size: 22px;&quot;&gt;count_value&lt;/font&gt;" style="text;html=1;align=center;verticalAlign=middle;resizable=0;points=[];autosize=1;strokeColor=none;fillColor=none;" vertex="1" parent="1">
          <mxGeometry x="379" y="338" width="137" height="38" as="geometry" />
        </mxCell>
        <mxCell id="3sV6u4wmjcROQWb_skof-13" value="&lt;font style=&quot;font-size: 22px;&quot;&gt;count_done&lt;/font&gt;" style="text;html=1;align=center;verticalAlign=middle;resizable=0;points=[];autosize=1;strokeColor=none;fillColor=none;" vertex="1" parent="1">
          <mxGeometry x="1232" y="227" width="133" height="38" as="geometry" />
        </mxCell>
        <mxCell id="3sV6u4wmjcROQWb_skof-14" value="&lt;font style=&quot;font-size: 27px;&quot;&gt;&lt;b&gt;Count&lt;/b&gt;&lt;/font&gt;" style="text;html=1;align=center;verticalAlign=middle;resizable=0;points=[];autosize=1;strokeColor=none;fillColor=none;" vertex="1" parent="1">
          <mxGeometry x="826" y="242" width="96" height="44" as="geometry" />
        </mxCell>
        <mxCell id="3sV6u4wmjcROQWb_skof-15" value="" style="whiteSpace=wrap;html=1;aspect=fixed;fillColor=#dae8fc;strokeColor=#6c8ebf;" vertex="1" parent="1">
          <mxGeometry x="676" y="620" width="406" height="406" as="geometry" />
        </mxCell>
        <mxCell id="3sV6u4wmjcROQWb_skof-16" value="" style="endArrow=classic;html=1;rounded=0;" edge="1" parent="1">
          <mxGeometry width="50" height="50" relative="1" as="geometry">
            <mxPoint x="519" y="782" as="sourcePoint" />
            <mxPoint x="674" y="782" as="targetPoint" />
          </mxGeometry>
        </mxCell>
        <mxCell id="3sV6u4wmjcROQWb_skof-17" value="" style="endArrow=classic;html=1;rounded=0;" edge="1" parent="1">
          <mxGeometry width="50" height="50" relative="1" as="geometry">
            <mxPoint x="519" y="823" as="sourcePoint" />
            <mxPoint x="674" y="823" as="targetPoint" />
          </mxGeometry>
        </mxCell>
        <mxCell id="3sV6u4wmjcROQWb_skof-18" value="" style="endArrow=classic;html=1;rounded=0;" edge="1" parent="1">
          <mxGeometry width="50" height="50" relative="1" as="geometry">
            <mxPoint x="519" y="866" as="sourcePoint" />
            <mxPoint x="674" y="866" as="targetPoint" />
          </mxGeometry>
        </mxCell>
        <mxCell id="3sV6u4wmjcROQWb_skof-19" value="" style="endArrow=classic;html=1;rounded=0;" edge="1" parent="1">
          <mxGeometry width="50" height="50" relative="1" as="geometry">
            <mxPoint x="519" y="910" as="sourcePoint" />
            <mxPoint x="674" y="910" as="targetPoint" />
          </mxGeometry>
        </mxCell>
        <mxCell id="3sV6u4wmjcROQWb_skof-20" value="" style="endArrow=classic;html=1;rounded=0;" edge="1" parent="1">
          <mxGeometry width="50" height="50" relative="1" as="geometry">
            <mxPoint x="1082" y="678" as="sourcePoint" />
            <mxPoint x="1237" y="678" as="targetPoint" />
          </mxGeometry>
        </mxCell>
        <mxCell id="3sV6u4wmjcROQWb_skof-21" value="" style="endArrow=none;html=1;rounded=0;" edge="1" parent="1">
          <mxGeometry width="50" height="50" relative="1" as="geometry">
            <mxPoint x="1132" y="688" as="sourcePoint" />
            <mxPoint x="1164" y="666" as="targetPoint" />
          </mxGeometry>
        </mxCell>
        <mxCell id="3sV6u4wmjcROQWb_skof-22" value="&lt;font style=&quot;font-size: 18px;&quot;&gt;2&lt;/font&gt;" style="text;html=1;align=center;verticalAlign=middle;resizable=0;points=[];autosize=1;strokeColor=none;fillColor=none;" vertex="1" parent="1">
          <mxGeometry x="1134" y="642" width="28" height="34" as="geometry" />
        </mxCell>
        <mxCell id="3sV6u4wmjcROQWb_skof-23" value="&lt;font style=&quot;font-size: 22px;&quot;&gt;clk&lt;/font&gt;" style="text;html=1;align=center;verticalAlign=middle;resizable=0;points=[];autosize=1;strokeColor=none;fillColor=none;" vertex="1" parent="1">
          <mxGeometry x="472" y="761" width="45" height="38" as="geometry" />
        </mxCell>
        <mxCell id="3sV6u4wmjcROQWb_skof-24" value="&lt;font style=&quot;font-size: 22px;&quot;&gt;rst_n&lt;/font&gt;" style="text;html=1;align=center;verticalAlign=middle;resizable=0;points=[];autosize=1;strokeColor=none;fillColor=none;" vertex="1" parent="1">
          <mxGeometry x="452" y="802" width="67" height="38" as="geometry" />
        </mxCell>
        <mxCell id="3sV6u4wmjcROQWb_skof-25" value="&lt;font style=&quot;font-size: 22px;&quot;&gt;emergency&lt;/font&gt;" style="text;html=1;align=center;verticalAlign=middle;resizable=0;points=[];autosize=1;strokeColor=none;fillColor=none;" vertex="1" parent="1">
          <mxGeometry x="392" y="846" width="127" height="38" as="geometry" />
        </mxCell>
        <mxCell id="3sV6u4wmjcROQWb_skof-26" value="&lt;font style=&quot;font-size: 22px;&quot;&gt;pedestrian_req&lt;/font&gt;" style="text;html=1;align=center;verticalAlign=middle;resizable=0;points=[];autosize=1;strokeColor=none;fillColor=none;" vertex="1" parent="1">
          <mxGeometry x="354" y="890" width="165" height="38" as="geometry" />
        </mxCell>
        <mxCell id="3sV6u4wmjcROQWb_skof-27" value="&lt;font style=&quot;font-size: 22px;&quot;&gt;ns_lights&lt;/font&gt;" style="text;html=1;align=center;verticalAlign=middle;resizable=0;points=[];autosize=1;strokeColor=none;fillColor=none;" vertex="1" parent="1">
          <mxGeometry x="1238" y="658" width="105" height="38" as="geometry" />
        </mxCell>
        <mxCell id="3sV6u4wmjcROQWb_skof-28" value="&lt;font style=&quot;font-size: 27px;&quot;&gt;&lt;b&gt;Traffic_FSM&lt;/b&gt;&lt;/font&gt;" style="text;html=1;align=center;verticalAlign=middle;resizable=0;points=[];autosize=1;strokeColor=none;fillColor=none;" vertex="1" parent="1">
          <mxGeometry x="794" y="801" width="171" height="44" as="geometry" />
        </mxCell>
        <mxCell id="3sV6u4wmjcROQWb_skof-43" value="" style="endArrow=classic;html=1;rounded=0;" edge="1" parent="1">
          <mxGeometry width="50" height="50" relative="1" as="geometry">
            <mxPoint x="519" y="742" as="sourcePoint" />
            <mxPoint x="674" y="742" as="targetPoint" />
          </mxGeometry>
        </mxCell>
        <mxCell id="3sV6u4wmjcROQWb_skof-44" value="&lt;font style=&quot;font-size: 22px;&quot;&gt;count_done&lt;/font&gt;" style="text;html=1;align=center;verticalAlign=middle;resizable=0;points=[];autosize=1;strokeColor=none;fillColor=none;" vertex="1" parent="1">
          <mxGeometry x="386" y="723" width="133" height="38" as="geometry" />
        </mxCell>
        <mxCell id="3sV6u4wmjcROQWb_skof-47" value="" style="endArrow=none;html=1;rounded=0;" edge="1" parent="1">
          <mxGeometry width="50" height="50" relative="1" as="geometry">
            <mxPoint x="585" y="742" as="sourcePoint" />
            <mxPoint x="1197" y="246" as="targetPoint" />
            <Array as="points">
              <mxPoint x="585" y="531" />
              <mxPoint x="1197" y="531" />
            </Array>
          </mxGeometry>
        </mxCell>
        <mxCell id="3sV6u4wmjcROQWb_skof-48" value="" style="endArrow=classic;html=1;rounded=0;" edge="1" parent="1">
          <mxGeometry width="50" height="50" relative="1" as="geometry">
            <mxPoint x="1082" y="729" as="sourcePoint" />
            <mxPoint x="1237" y="729" as="targetPoint" />
          </mxGeometry>
        </mxCell>
        <mxCell id="3sV6u4wmjcROQWb_skof-49" value="" style="endArrow=none;html=1;rounded=0;" edge="1" parent="1">
          <mxGeometry width="50" height="50" relative="1" as="geometry">
            <mxPoint x="1132" y="739" as="sourcePoint" />
            <mxPoint x="1164" y="717" as="targetPoint" />
          </mxGeometry>
        </mxCell>
        <mxCell id="3sV6u4wmjcROQWb_skof-50" value="&lt;font style=&quot;font-size: 18px;&quot;&gt;2&lt;/font&gt;" style="text;html=1;align=center;verticalAlign=middle;resizable=0;points=[];autosize=1;strokeColor=none;fillColor=none;" vertex="1" parent="1">
          <mxGeometry x="1134" y="693" width="28" height="34" as="geometry" />
        </mxCell>
        <mxCell id="3sV6u4wmjcROQWb_skof-51" value="&lt;font style=&quot;font-size: 22px;&quot;&gt;ew_lights&lt;/font&gt;" style="text;html=1;align=center;verticalAlign=middle;resizable=0;points=[];autosize=1;strokeColor=none;fillColor=none;" vertex="1" parent="1">
          <mxGeometry x="1238" y="709" width="110" height="38" as="geometry" />
        </mxCell>
        <mxCell id="3sV6u4wmjcROQWb_skof-52" value="" style="endArrow=classic;html=1;rounded=0;" edge="1" parent="1">
          <mxGeometry width="50" height="50" relative="1" as="geometry">
            <mxPoint x="1082" y="773" as="sourcePoint" />
            <mxPoint x="1237" y="773" as="targetPoint" />
          </mxGeometry>
        </mxCell>
        <mxCell id="3sV6u4wmjcROQWb_skof-53" value="" style="endArrow=classic;html=1;rounded=0;" edge="1" parent="1">
          <mxGeometry width="50" height="50" relative="1" as="geometry">
            <mxPoint x="1083" y="820" as="sourcePoint" />
            <mxPoint x="1238" y="820" as="targetPoint" />
          </mxGeometry>
        </mxCell>
        <mxCell id="3sV6u4wmjcROQWb_skof-54" value="" style="endArrow=classic;html=1;rounded=0;" edge="1" parent="1">
          <mxGeometry width="50" height="50" relative="1" as="geometry">
            <mxPoint x="1083" y="872" as="sourcePoint" />
            <mxPoint x="1238" y="872" as="targetPoint" />
          </mxGeometry>
        </mxCell>
        <mxCell id="3sV6u4wmjcROQWb_skof-55" value="&lt;font style=&quot;font-size: 22px;&quot;&gt;ped_walk&lt;/font&gt;" style="text;html=1;align=center;verticalAlign=middle;resizable=0;points=[];autosize=1;strokeColor=none;fillColor=none;" vertex="1" parent="1">
          <mxGeometry x="1237" y="755" width="111" height="38" as="geometry" />
        </mxCell>
        <mxCell id="3sV6u4wmjcROQWb_skof-56" value="&lt;font style=&quot;font-size: 22px;&quot;&gt;emergency_active&lt;/font&gt;" style="text;html=1;align=center;verticalAlign=middle;resizable=0;points=[];autosize=1;strokeColor=none;fillColor=none;" vertex="1" parent="1">
          <mxGeometry x="1238" y="802" width="197" height="38" as="geometry" />
        </mxCell>
        <mxCell id="3sV6u4wmjcROQWb_skof-58" value="&lt;font style=&quot;font-size: 22px;&quot;&gt;count_start&lt;/font&gt;" style="text;html=1;align=center;verticalAlign=middle;resizable=0;points=[];autosize=1;strokeColor=none;fillColor=none;" vertex="1" parent="1">
          <mxGeometry x="1238" y="852" width="127" height="38" as="geometry" />
        </mxCell>
        <mxCell id="3sV6u4wmjcROQWb_skof-59" value="" style="endArrow=classic;html=1;rounded=0;" edge="1" parent="1">
          <mxGeometry width="50" height="50" relative="1" as="geometry">
            <mxPoint x="1082" y="933" as="sourcePoint" />
            <mxPoint x="1237" y="933" as="targetPoint" />
          </mxGeometry>
        </mxCell>
        <mxCell id="3sV6u4wmjcROQWb_skof-60" value="&lt;font style=&quot;font-size: 22px;&quot;&gt;count_value&lt;/font&gt;" style="text;html=1;align=center;verticalAlign=middle;resizable=0;points=[];autosize=1;strokeColor=none;fillColor=none;" vertex="1" parent="1">
          <mxGeometry x="1238" y="912" width="137" height="38" as="geometry" />
        </mxCell>
        <mxCell id="3sV6u4wmjcROQWb_skof-61" value="" style="endArrow=none;html=1;rounded=0;" edge="1" parent="1">
          <mxGeometry width="50" height="50" relative="1" as="geometry">
            <mxPoint x="1144" y="942" as="sourcePoint" />
            <mxPoint x="1176" y="920" as="targetPoint" />
          </mxGeometry>
        </mxCell>
        <mxCell id="3sV6u4wmjcROQWb_skof-62" value="&lt;font style=&quot;font-size: 18px;&quot;&gt;5&lt;/font&gt;" style="text;html=1;align=center;verticalAlign=middle;resizable=0;points=[];autosize=1;strokeColor=none;fillColor=none;" vertex="1" parent="1">
          <mxGeometry x="1146" y="896" width="28" height="34" as="geometry" />
        </mxCell>
        <mxCell id="3sV6u4wmjcROQWb_skof-63" value="" style="endArrow=none;html=1;rounded=0;" edge="1" parent="1">
          <mxGeometry width="50" height="50" relative="1" as="geometry">
            <mxPoint x="1197" y="933" as="sourcePoint" />
            <mxPoint x="530" y="357" as="targetPoint" />
            <Array as="points">
              <mxPoint x="1197" y="1059" />
              <mxPoint x="299" y="1055" />
              <mxPoint x="299" y="528" />
              <mxPoint x="530" y="528" />
            </Array>
          </mxGeometry>
        </mxCell>
        <mxCell id="3sV6u4wmjcROQWb_skof-64" value="" style="endArrow=none;html=1;rounded=0;" edge="1" parent="1">
          <mxGeometry width="50" height="50" relative="1" as="geometry">
            <mxPoint x="1153" y="872" as="sourcePoint" />
            <mxPoint x="546" y="267" as="targetPoint" />
            <Array as="points">
              <mxPoint x="1153" y="845" />
              <mxPoint x="1521" y="841" />
              <mxPoint x="1514" y="34" />
              <mxPoint x="390" y="34" />
              <mxPoint x="390" y="227" />
              <mxPoint x="546" y="227" />
            </Array>
          </mxGeometry>
        </mxCell>
      </root>
    </mxGraphModel>
  </diagram>
</mxfile>
